<svg width="22" height="22" viewBox="0 0 22 22" fill="none" xmlns="http://www.w3.org/2000/svg">
<path d="M4.5 5.66675H3.33333C2.71449 5.66675 2.121 5.91258 1.68342 6.35017C1.24583 6.78775 1 7.38124 1 8.00008V18.5001C1 19.1189 1.24583 19.7124 1.68342 20.15C2.121 20.5876 2.71449 20.8334 3.33333 20.8334H13.8333C14.4522 20.8334 15.0457 20.5876 15.4832 20.15C15.9208 19.7124 16.1667 19.1189 16.1667 18.5001V17.3334" stroke="white" stroke-width="2" stroke-linecap="round" stroke-linejoin="round"/>
<path d="M14.9999 3.33346L18.4999 6.83346M20.1158 5.18263C20.5752 4.72314 20.8334 4.09994 20.8334 3.45012C20.8334 2.80031 20.5752 2.17711 20.1158 1.71762C19.6563 1.25814 19.0331 1 18.3833 1C17.7334 1 17.1102 1.25814 16.6508 1.71762L6.83325 11.5001V15.0001H10.3333L20.1158 5.18263Z" stroke="white" stroke-width="2" stroke-linecap="round" stroke-linejoin="round"/>
</svg>
