<svg width="21" height="22" viewBox="0 0 21 22" fill="none" xmlns="http://www.w3.org/2000/svg">
<path d="M18.4875 9.2765C18.2415 4.664 14.4235 1 9.75 1C4.9175 1 1 4.9175 1 9.75C1 12.6125 2.375 15.1545 4.5 16.7505V20.6835C4.5 21.0975 4.8345 21.4335 5.2485 21.4335H14.251C14.665 21.4335 15 21.0975 15 20.6835V18.8375L16.334 19.0625C16.5386 19.097 16.7481 19.0886 16.9493 19.038C17.1505 18.9874 17.339 18.8956 17.5029 18.7684C17.6668 18.6411 17.8026 18.4813 17.9016 18.299C18.0005 18.1166 18.0606 17.9157 18.078 17.709L18.365 14.303C19.29 14.0955 19.955 13.761 20.3865 13.482C20.7735 13.232 20.8185 12.727 20.5605 12.345L18.4875 9.2765Z" fill="#8FBFFA"/>
<path d="M7.5115 6.02851C6.74649 6.46681 6.14773 7.14559 5.8083 7.9593C5.46888 8.77302 5.40781 9.67608 5.63459 10.5281C5.86137 11.3801 6.36329 12.1333 7.06233 12.6706C7.76136 13.2079 8.61833 13.4992 9.5 13.4992C10.3817 13.4992 11.2386 13.2079 11.9377 12.6706C12.6367 12.1333 13.1386 11.3801 13.3654 10.5281C13.5922 9.67608 13.5311 8.77302 13.1917 7.9593C12.8523 7.14559 12.2535 6.46681 11.4885 6.02851C11.4955 5.58884 11.4993 5.07934 11.5 4.50001C11.5 3.22451 11.478 2.29751 11.455 1.67751C11.4335 1.07751 11.028 0.584008 10.43 0.535008C10.1206 0.51132 9.81034 0.499645 9.5 0.500008C9.134 0.500008 8.825 0.514508 8.57 0.535008C7.972 0.584008 7.5665 1.07751 7.545 1.67751C7.5215 2.29751 7.5 3.22451 7.5 4.50001C7.50033 5.07967 7.50417 5.58917 7.5115 6.02851Z" fill="white"/>
<path d="M14.12 2.10596C14.249 2.17696 14.3756 2.25096 14.5 2.32796C16.9685 3.85696 18.619 6.55796 18.6565 9.64296L20.53 12.2545C20.8115 12.647 20.7625 13.1775 20.3485 13.4265C19.9335 13.6765 19.317 13.9685 18.4815 14.1705L18.1985 17.5295C18.1815 17.7306 18.1241 17.9263 18.0296 18.1048C17.9352 18.2833 17.8057 18.4408 17.649 18.5681C17.4922 18.6953 17.3113 18.7896 17.1173 18.8452C16.9232 18.9009 16.7198 18.9168 16.5195 18.892L15.1195 18.719V20.5C15.1195 20.765 15.0143 21.0192 14.8269 21.2067C14.6396 21.3942 14.3855 21.4997 14.1205 21.5H5.50697C5.24184 21.4998 4.98762 21.3944 4.80019 21.2069C4.61276 21.0194 4.50747 20.7651 4.50747 20.5V16.75C2.35997 15.154 0.969971 12.6125 0.969971 9.74996C0.969971 6.61996 2.63047 3.87496 5.12747 2.32796" stroke="#2859C5" stroke-width="1.5" stroke-linecap="round" stroke-linejoin="round"/>
<path d="M7.5115 6.02851C6.74649 6.46681 6.14773 7.14558 5.8083 7.9593C5.46888 8.77302 5.40781 9.67608 5.63459 10.5281C5.86137 11.3801 6.36329 12.1333 7.06233 12.6706C7.76136 13.2079 8.61833 13.4992 9.5 13.4992C10.3817 13.4992 11.2386 13.2079 11.9377 12.6706C12.6367 12.1333 13.1386 11.3801 13.3654 10.5281C13.5922 9.67608 13.5311 8.77302 13.1917 7.9593C12.8523 7.14558 12.2535 6.46681 11.4885 6.02851C11.4955 5.58884 11.4993 5.07934 11.5 4.50001C11.5 3.22451 11.478 2.29751 11.455 1.67751C11.4335 1.07751 11.028 0.584008 10.43 0.535008C10.1206 0.51132 9.81034 0.499645 9.5 0.500008C9.134 0.500008 8.825 0.514508 8.57 0.535008C7.972 0.584008 7.5665 1.07751 7.545 1.67751C7.5215 2.29751 7.5 3.22451 7.5 4.50001C7.50033 5.07967 7.50417 5.58917 7.5115 6.02851Z" stroke="#2859C5" stroke-width="1.5" stroke-linecap="round" stroke-linejoin="round"/>
<path d="M9.5 13.5C11 15 13.3 16 15.5 16" stroke="#2859C5" stroke-width="1.5" stroke-linecap="round" stroke-linejoin="round"/>
</svg>
