<svg width="22" height="20" viewBox="0 0 22 20" fill="none" xmlns="http://www.w3.org/2000/svg">
<path d="M4 8V20H0V8H4ZM14.2305 1.0498C14.5004 1.3198 14.6699 1.70042 14.6699 2.11035C14.6699 2.22015 14.6596 2.32986 14.6396 2.42969L13.6797 7H20C20.5304 7 21.039 7.21086 21.4141 7.58594C21.7891 7.96101 22 8.46957 22 9V11C22 11.26 21.9504 11.5005 21.8604 11.7305L18.8398 18.7803C18.5398 19.5001 17.8299 20 17 20H8C7.46957 20 6.96101 19.7891 6.58594 19.4141C6.21086 19.039 6 18.5304 6 18V8C6 7.45006 6.21991 6.95007 6.58984 6.58008L13.1699 0L14.2305 1.0498Z" fill="white"/>
</svg>
