<svg width="23" height="23" viewBox="0 0 23 23" fill="none" xmlns="http://www.w3.org/2000/svg">
<path d="M11.5 0C8.4507 0 5.52359 1.21235 3.36914 3.36824C1.21248 5.525 0.000617134 8.44995 0 11.5C0 14.5488 1.21289 17.4759 3.36914 19.6318C5.52359 21.7876 8.4507 23 11.5 23C14.5493 23 17.4764 21.7876 19.6309 19.6318C21.7871 17.4759 23 14.5488 23 11.5C23 8.45124 21.7871 5.52413 19.6309 3.36824C17.4764 1.21235 14.5493 0 11.5 0Z" fill="url(#paint0_linear_26_120)"/>
<path d="M5.20556 11.3785C8.55853 9.91804 10.7938 8.95516 11.9115 8.48988C15.1063 7.16145 15.7694 6.93074 16.2024 6.92292C16.2977 6.92139 16.5097 6.94493 16.6481 7.05679C16.7631 7.15112 16.7954 7.2787 16.8116 7.36828C16.8259 7.45776 16.8457 7.66171 16.8295 7.82091C16.657 9.63935 15.9077 14.0521 15.5268 16.0889C15.3669 16.9507 15.0488 17.2396 14.7416 17.2678C14.0731 17.3293 13.5664 16.8265 12.9195 16.4026C11.9079 15.739 11.3365 15.3261 10.3536 14.6787C9.21798 13.9305 9.9547 13.5192 10.6016 12.8471C10.7705 12.6712 13.7138 9.99477 13.7695 9.75201C13.7767 9.72164 13.7838 9.60844 13.7156 9.54878C13.6491 9.48895 13.5502 9.50943 13.4784 9.5256C13.3759 9.5486 11.7606 10.6174 8.62681 12.7318C8.1686 13.0469 7.75353 13.2006 7.37978 13.1925C6.97009 13.1837 6.17946 12.9603 5.59189 12.7695C4.87314 12.5354 4.29993 12.4116 4.35024 12.0139C4.3754 11.8069 4.6611 11.5951 5.20556 11.3785Z" fill="white"/>
<defs>
<linearGradient id="paint0_linear_26_120" x1="1150" y1="0" x2="1150" y2="2300" gradientUnits="userSpaceOnUse">
<stop stop-color="#2AABEE"/>
<stop offset="1" stop-color="#229ED9"/>
</linearGradient>
</defs>
</svg>
