<svg width="54" height="54" viewBox="0 0 54 54" fill="none" xmlns="http://www.w3.org/2000/svg">
<rect x="0.0576172" y="0.0576172" width="53.8707" height="53.8707" rx="8.97846" fill="#F3FAFD"/>
<mask id="mask0_149_189" style="mask-type:alpha" maskUnits="userSpaceOnUse" x="0" y="0" width="54" height="54">
<g clip-path="url(#clip0_149_189)">
<path d="M20.4501 42.8512H33.5474M30.5957 36.0837V34.5125C30.5957 33.3565 30.5284 32.1893 30.3937 31.0333C30.3238 30.1676 29.9305 29.3599 29.292 28.7709C28.6536 28.182 27.8168 27.855 26.9482 27.855C26.0796 27.855 25.2429 28.182 24.6044 28.7709C23.966 29.3599 23.5727 30.1676 23.5027 31.0333C23.3905 32.1669 23.3344 33.3229 23.3456 34.4788V36.1062M26.9931 42.8849V36.3755M26.9931 24.0975C27.9605 24.0975 28.8883 23.7132 29.5723 23.0292C30.2563 22.3451 30.6406 21.4174 30.6406 20.45C30.6406 19.4826 30.2563 18.5549 29.5723 17.8708C28.8883 17.1868 27.9605 16.8025 26.9931 16.8025C26.0257 16.8025 25.098 17.1868 24.414 17.8708C23.7299 18.5549 23.3456 19.4826 23.3456 20.45C23.3456 21.4174 23.7299 22.3451 24.414 23.0292C25.098 23.7132 26.0257 24.0975 26.9931 24.0975Z" stroke="#B5ADBE" stroke-width="2.24461" stroke-linecap="round" stroke-linejoin="round"/>
<path d="M42.3687 32.5148C42.2665 33.3549 41.8822 34.1354 41.2788 34.7287C40.6753 35.322 39.8883 35.6929 39.0466 35.7807C35.04 36.1847 31.0221 36.3643 26.9931 36.3419C22.9303 36.3643 18.8788 36.1623 14.8385 35.747C13.9985 35.6597 13.2128 35.2904 12.6095 34.6994C12.0063 34.1083 11.621 33.3304 11.5164 32.4924C11.2134 29.7315 11.0675 26.9594 11.1012 24.1873C11.1012 21.4264 11.2695 18.6655 11.6062 15.9159C11.7084 15.0758 12.0926 14.2953 12.6961 13.702C13.2996 13.1087 14.0866 12.7378 14.9283 12.65C18.9349 12.2347 22.964 12.0215 26.9931 12.0327C31.0221 12.0102 35.04 12.2123 39.0466 12.6163C39.89 12.7046 40.6783 13.0771 41.282 13.6727C41.8857 14.2682 42.2689 15.0513 42.3687 15.8934C42.7054 18.6431 42.8849 21.4152 42.8962 24.1873C42.8812 26.971 42.705 29.7515 42.3687 32.5148Z" stroke="#B5ADBE" stroke-width="2.24461" stroke-linecap="round" stroke-linejoin="round"/>
</g>
</mask>
<g mask="url(#mask0_149_189)">
<rect x="0.0576172" y="0.0576172" width="53.8707" height="53.8707" fill="#7ECDE1"/>
</g>
<defs>
<clipPath id="clip0_149_189">
<rect width="53.8707" height="53.8707" fill="white" transform="translate(0.0576172 0.0576172)"/>
</clipPath>
</defs>
</svg>
