<svg width="36" height="33" viewBox="0 0 36 33" fill="none" xmlns="http://www.w3.org/2000/svg">
<path d="M0 32.1456V26.5201C0 25.4151 0.251419 24.3771 0.754258 23.406C1.2571 22.4349 1.9522 21.6983 2.83956 21.196C4.34808 20.3254 6.04886 19.5887 7.9419 18.986C9.83494 18.3833 11.9202 18.0819 14.1978 18.0819C15.0852 18.0819 15.9506 18.1321 16.7942 18.2326C17.6378 18.333 18.4583 18.4837 19.2558 18.6846L16.15 22.2005C15.8246 22.1336 15.507 22.1001 15.197 22.1001H14.1978C12.0977 22.1001 10.2124 22.3847 8.54175 22.954C6.87114 23.5232 5.50283 24.1427 4.43681 24.8124C4.1706 24.9798 3.95586 25.2142 3.79259 25.5156C3.62931 25.8169 3.54827 26.1518 3.54945 26.5201V28.1274H14.6415L18.1909 32.1456H0ZM24.0475 32.9492L17.9247 26.0178L20.4093 23.2051L24.0475 27.3237L33.0099 17.1778L35.4945 19.9905L24.0475 32.9492ZM14.1978 16.0728C12.2456 16.0728 10.5744 15.2859 9.1842 13.7121C7.794 12.1383 7.0989 10.2464 7.0989 8.0364C7.0989 5.82639 7.794 3.93449 9.1842 2.36069C10.5744 0.786897 12.2456 0 14.1978 0C16.15 0 17.8212 0.786897 19.2114 2.36069C20.6016 3.93449 21.2967 5.82639 21.2967 8.0364C21.2967 10.2464 20.6016 12.1383 19.2114 13.7121C17.8212 15.2859 16.15 16.0728 14.1978 16.0728ZM14.1978 12.0546C15.1739 12.0546 16.0098 11.6615 16.7055 10.8753C17.4012 10.089 17.7484 9.14274 17.7473 8.0364C17.7461 6.93005 17.3988 5.98444 16.7055 5.19955C16.0122 4.41466 15.1763 4.02088 14.1978 4.0182C13.2193 4.01552 12.384 4.4093 11.6919 5.19955C10.9997 5.98979 10.6519 6.93541 10.6484 8.0364C10.6448 9.13738 10.9927 10.0837 11.6919 10.8753C12.3911 11.6668 13.2264 12.0599 14.1978 12.0546Z" fill="white"/>
</svg>
