<svg width="33" height="33" viewBox="0 0 33 33" fill="none" xmlns="http://www.w3.org/2000/svg">
<path d="M12.5907 16.1263C11.2347 16.8636 8.42803 10.9596 7.8547 9.49964C7.77315 9.30963 7.64854 9.1412 7.4907 9.00764C7.28552 8.87298 7.05581 8.78009 6.8147 8.73431L2.62403 8.76097C2.62403 8.76097 1.99336 8.77964 1.7627 9.05297C1.55736 9.29697 1.74536 9.79964 1.74536 9.79964C1.74536 9.79964 5.02536 17.2196 8.7427 21.0876C9.65248 22.106 10.7775 22.9091 12.0363 23.4386C13.295 23.9681 14.6559 24.2108 16.02 24.149C16.8714 24.192 17.7248 24.1608 18.5707 24.0556C19.272 23.3023 18.3894 21.2503 19.8694 20.7796C20.9454 20.4396 22.328 23.0863 23.7934 24.0956C24.3454 24.533 25.04 24.749 25.744 24.705L29.6614 24.6596C29.6614 24.6596 31.7094 24.5316 30.7387 22.925C29.9652 21.6459 28.9801 20.5075 27.8254 19.5583C25.368 17.2783 25.6987 17.645 28.6574 13.7036C30.46 11.3036 31.1787 9.83697 30.9534 9.20897C30.74 8.60897 29.412 8.76764 29.412 8.76764L25.0094 8.79031C24.8136 8.76698 24.6153 8.80127 24.4387 8.88897C24.2731 9.01141 24.1417 9.17442 24.0574 9.36231C23.4494 10.9783 20.548 16.8783 19.3547 16.1076C17.764 15.077 20.1547 8.76097 17.84 8.19964C17.1667 8.03825 16.4746 7.96961 15.7827 7.99564C14.5496 7.88279 13.3063 8.00956 12.1214 8.36897C11.6214 8.61831 11.228 9.16364 11.468 9.19564C11.968 9.23964 12.4307 9.47431 12.7654 9.84897C13.372 10.685 13.4907 15.6356 12.592 16.1263" fill="#66E1FF"/>
<path d="M17.832 8.2037C17.1583 8.04218 16.4657 7.97355 15.7734 7.9997C14.5407 7.88702 13.2979 8.01379 12.1134 8.37303C11.612 8.62236 11.22 9.1677 11.4587 9.1997C11.9614 9.24236 12.428 9.47436 12.7654 9.84903C13.3747 10.6824 13.4934 15.633 12.5934 16.1224C11.2334 16.8637 8.42803 10.9597 7.8547 9.50236C7.77333 9.31188 7.6487 9.14297 7.4907 9.00903C7.28563 8.8739 7.05591 8.78056 6.8147 8.73436L2.62403 8.76103C2.62403 8.76103 1.99336 8.7797 1.7627 9.05303C1.55736 9.29703 1.74536 9.7997 1.74536 9.7997C1.74536 9.7997 5.02536 17.2197 8.7427 21.089C9.25648 21.6233 9.81959 22.0988 10.432 22.5157L18.76 14.185C18.7387 11.941 19.4867 8.60236 17.832 8.2037Z" fill="#C2F3FF"/>
<path d="M12.5947 16.1261C11.24 16.8634 8.43471 10.9594 7.85737 9.49942C7.77621 9.30955 7.65206 9.14113 7.49471 9.00742C7.28913 8.8726 7.05895 8.77971 6.81737 8.73409L2.62537 8.76076C2.62537 8.76076 1.99604 8.77942 1.76671 9.05276C1.56004 9.29542 1.74937 9.79942 1.74937 9.79942C1.74937 9.79942 5.02937 17.2194 8.74537 21.0874C9.65443 22.1049 10.7784 22.9075 12.0359 23.4369C13.2934 23.9664 14.653 24.2096 16.016 24.1488C16.8674 24.1918 17.7208 24.1606 18.5667 24.0554C19.2694 23.3021 18.3867 21.2501 19.8667 20.7794C20.9427 20.4381 22.324 23.0861 23.7907 24.0954C24.3427 24.5328 25.0374 24.7488 25.74 24.7048L29.6587 24.6594C29.6587 24.6594 31.7067 24.5314 30.7347 22.9248C29.9637 21.6442 28.9788 20.5055 27.8227 19.5581C25.364 17.2781 25.696 17.6434 28.6534 13.7034C30.456 11.3034 31.176 9.83676 30.9494 9.20742C30.7334 8.60742 29.408 8.76742 29.408 8.76742L25.0094 8.79009C24.8136 8.76676 24.6153 8.80105 24.4387 8.88876C24.2706 9.01035 24.137 9.17343 24.0507 9.36209C23.444 10.9781 20.5414 16.8781 19.3507 16.1074C17.7587 15.0768 20.1507 8.76076 17.8347 8.19942C17.1614 8.03803 16.4692 7.96939 15.7774 7.99542C14.5447 7.88275 13.3019 8.00952 12.1174 8.36876C11.6147 8.61809 11.224 9.16342 11.4627 9.19542C11.964 9.23809 12.4294 9.47276 12.7654 9.84876C13.376 10.6848 13.4947 15.6354 12.5947 16.1261Z" stroke="#191919" stroke-width="1.33333" stroke-linecap="round" stroke-linejoin="round"/>
</svg>
