<svg width="31" height="30" viewBox="0 0 31 30" fill="none" xmlns="http://www.w3.org/2000/svg">
<path d="M4.49267 23.627C2.796 23.5136 1.466 22.257 1.31267 20.5636C1.15333 18.7863 1 16.1263 1 12.461C1 8.79563 1.15333 6.1343 1.31333 4.3583C1.46533 2.66497 2.796 1.40763 4.49267 1.29497C6.64533 1.15163 10.0853 0.999634 15.008 0.999634C19.9307 0.999634 23.3713 1.15163 25.524 1.29497C27.22 1.4083 28.5507 2.66497 28.7033 4.3583C28.8633 6.13497 29.0167 8.79563 29.0167 12.461C29.0167 16.1263 28.8633 18.7876 28.7033 20.5636C28.5507 22.257 27.22 23.5143 25.5233 23.627C23.6373 23.753 20.7613 23.885 16.7653 23.9156L11.4933 28.609C10.6333 29.3736 9.27333 28.7636 9.27333 27.6123V23.8456C7.67854 23.8029 6.0847 23.73 4.49267 23.627Z" fill="#8FBFFA"/>
<path d="M17.0453 18.333C17.0453 18.9518 16.7995 19.5453 16.3619 19.9829C15.9243 20.4205 15.3308 20.6663 14.712 20.6663C14.0932 20.6663 13.4997 20.4205 13.0621 19.9829C12.6245 19.5453 12.3787 18.9518 12.3787 18.333C12.3787 17.7141 12.6245 17.1206 13.0621 16.6831C13.4997 16.2455 14.0932 15.9996 14.712 15.9996C15.3308 15.9996 15.9243 16.2455 16.3619 16.6831C16.7995 17.1206 17.0453 17.7141 17.0453 18.333Z" fill="white"/>
<path d="M16.4247 4.66626C13.776 4.66626 11.5327 6.23959 11.0913 7.99959C10.6953 9.58226 11.6193 10.9489 13.1567 10.9183C13.5713 10.9103 13.956 10.7249 14.3127 10.5143C14.8627 10.1876 15.7347 9.68293 16.4247 9.33293C15.0687 10.0829 12.6453 11.1976 12.6453 12.8443L12.6433 14.3303C12.643 14.5494 12.6858 14.7664 12.7694 14.9689C12.853 15.1714 12.9757 15.3554 13.1305 15.5105C13.2853 15.6655 13.4692 15.7885 13.6716 15.8725C13.874 15.9564 14.0909 15.9996 14.31 15.9996H15.046C15.618 15.9996 16.1227 15.7109 16.4227 15.2716C16.7693 14.7649 17.052 14.1556 17.5873 13.8549C19.6087 12.7196 21.092 11.5803 21.092 9.33293C21.092 6.99959 19.684 4.66626 16.4253 4.66626H16.4247Z" fill="white"/>
<path d="M4.49267 23.627C2.796 23.5136 1.466 22.257 1.31267 20.5636C1.15333 18.7863 1 16.1263 1 12.461C1 8.79563 1.15333 6.1343 1.31333 4.3583C1.46533 2.66497 2.796 1.40763 4.49267 1.29497C6.64533 1.15163 10.0853 0.999634 15.008 0.999634C19.9307 0.999634 23.3713 1.15163 25.524 1.29497C27.22 1.4083 28.5507 2.66497 28.7033 4.3583C28.8633 6.13497 29.0167 8.79563 29.0167 12.461C29.0167 16.1263 28.8633 18.7876 28.7033 20.5636C28.5507 22.257 27.22 23.5143 25.5233 23.627C23.6373 23.753 20.7613 23.885 16.7653 23.9156L11.4933 28.609C10.6333 29.3736 9.27333 28.7636 9.27333 27.6123V23.8456C7.67854 23.8029 6.0847 23.73 4.49267 23.627Z" stroke="#2859C5" stroke-width="2" stroke-linecap="round" stroke-linejoin="round"/>
<path d="M12.3787 18.333C12.3787 18.9518 12.6245 19.5453 13.0621 19.9829C13.4997 20.4205 14.0932 20.6663 14.712 20.6663C15.3308 20.6663 15.9243 20.4205 16.3619 19.9829C16.7995 19.5453 17.0453 18.9518 17.0453 18.333C17.0453 17.7141 16.7995 17.1206 16.3619 16.6831C15.9243 16.2455 15.3308 15.9996 14.712 15.9996C14.0932 15.9996 13.4997 16.2455 13.0621 16.6831C12.6245 17.1206 12.3787 17.7141 12.3787 18.333Z" stroke="#2859C5" stroke-width="2" stroke-linecap="round" stroke-linejoin="round"/>
<path d="M16.4247 4.66626C13.776 4.66626 11.5327 6.23959 11.0913 7.99959C10.6953 9.58226 11.6193 10.9489 13.1567 10.9183C13.5713 10.9103 13.956 10.7249 14.3127 10.5143C14.8627 10.1876 15.7347 9.68293 16.4247 9.33293C15.0687 10.0829 12.6453 11.1976 12.6453 12.8443L12.6433 14.3303C12.643 14.5494 12.6858 14.7664 12.7694 14.9689C12.853 15.1714 12.9757 15.3554 13.1305 15.5105C13.2853 15.6655 13.4692 15.7885 13.6716 15.8725C13.874 15.9564 14.0909 15.9996 14.31 15.9996H15.046C15.618 15.9996 16.1227 15.7109 16.4227 15.2716C16.7693 14.7649 17.052 14.1556 17.5873 13.8549C19.6087 12.7196 21.092 11.5803 21.092 9.33293C21.092 6.99959 19.684 4.66626 16.4253 4.66626H16.4247Z" stroke="#2859C5" stroke-width="2" stroke-linecap="round" stroke-linejoin="round"/>
</svg>
